<?xml version="1.0" standalone="no"?>
<!DOCTYPE svg PUBLIC "-//W3C//DTD SVG 20010904//EN"
 "http://www.w3.org/TR/2001/REC-SVG-20010904/DTD/svg10.dtd">
<svg version="1.0" xmlns="http://www.w3.org/2000/svg"
 width="473.000000pt" height="309.000000pt" viewBox="0 0 473.000000 309.000000"
 preserveAspectRatio="xMidYMid meet">

<g transform="translate(0.000000,309.000000) scale(0.100000,-0.100000)"
fill="#000000" stroke="none">
<path d="M1083 1710 c-48 -19 -71 -98 -43 -150 7 -12 48 -39 97 -63 101 -48
120 -71 103 -121 -18 -54 -55 -79 -111 -74 -53 5 -91 30 -113 73 l-15 30 0
-52 c-1 -43 2 -51 14 -47 8 4 33 -1 55 -10 48 -19 115 -21 150 -3 61 31 91
133 54 185 -9 13 -53 40 -97 61 -45 21 -88 45 -95 54 -22 26 -11 79 21 97 25
14 30 13 64 -5 22 -12 45 -35 55 -55 l17 -35 1 52 c0 41 -3 51 -14 47 -8 -3
-28 2 -45 10 -33 18 -64 19 -98 6z"/>
<path d="M1870 1706 c-27 -33 18 -72 48 -42 13 13 14 20 6 34 -15 23 -38 26
-54 8z"/>
<path d="M2311 1699 c-43 -16 -44 -16 -17 -23 25 -6 27 -10 24 -54 -3 -43 -5
-47 -31 -50 -16 -2 -34 2 -42 8 -10 9 -15 6 -20 -9 -8 -26 -13 -26 -45 -1 -31
24 -99 26 -163 4 -49 -16 -58 -28 -32 -38 23 -9 22 -332 -2 -358 -15 -17 -14
-18 37 -18 41 0 50 3 42 13 -5 6 -12 35 -13 64 l-4 51 48 -5 c59 -7 88 7 115
56 29 53 34 100 18 155 -17 55 -12 59 50 54 l39 -3 3 -109 c2 -101 1 -111 -19
-132 l-22 -24 61 0 62 0 -20 20 c-18 18 -20 33 -20 136 l0 117 45 -6 c36 -4
47 -1 55 12 7 15 2 17 -43 16 l-52 0 -5 70 -5 71 -44 -17z m-155 -150 c15 -16
20 -40 22 -103 3 -71 1 -84 -18 -108 -15 -20 -30 -28 -54 -28 -51 0 -56 13
-56 132 0 91 3 108 18 117 28 17 68 12 88 -10z"/>
<path d="M3801 1699 c-43 -15 -43 -16 -18 -23 l27 -6 0 -172 c0 -163 -1 -173
-22 -195 l-21 -23 64 0 c59 1 63 2 44 16 -19 14 -20 30 -25 217 l-5 203 -44
-17z"/>
<path d="M1320 1696 l-35 -13 28 -7 27 -6 0 -175 c0 -162 -2 -177 -20 -195
l-20 -20 62 0 c59 0 60 1 45 18 -22 24 -22 75 1 95 17 16 21 14 66 -32 l48
-49 -23 -16 c-22 -15 -17 -16 100 -16 120 0 123 1 108 18 -14 15 -17 41 -17
134 0 113 0 115 25 126 35 16 66 15 92 -3 22 -16 22 -16 2 -36 -15 -15 -17
-24 -9 -39 24 -45 71 -8 53 41 -9 23 -9 29 3 29 22 0 20 -227 -3 -252 -15 -17
-14 -18 42 -18 56 0 57 1 42 18 -14 15 -17 42 -17 155 0 80 -4 137 -10 137 -5
0 -21 -5 -35 -12 -20 -9 -34 -9 -63 2 -46 16 -92 15 -154 -6 -49 -16 -59 -28
-33 -38 13 -5 15 -25 13 -118 -4 -141 -13 -147 -95 -59 -38 42 -63 61 -79 61
-13 0 -24 3 -24 6 0 8 99 124 125 146 19 17 18 17 -29 18 -42 0 -47 -2 -34
-12 15 -12 10 -21 -40 -85 -31 -39 -61 -72 -67 -72 -6 -1 -9 52 -7 144 3 162
6 157 -68 131z"/>
<path d="M2870 1696 l-35 -13 28 -7 c24 -6 27 -11 27 -52 0 -42 -1 -45 -22
-38 -36 11 -77 7 -104 -11 -23 -15 -34 -34 -62 -105 -9 -24 -10 -23 -22 19
-17 65 -58 101 -112 101 -47 -1 -65 -11 -92 -52 -53 -82 -32 -207 41 -247 68
-36 142 7 164 93 l12 47 18 -53 c32 -96 88 -118 206 -81 50 16 70 33 38 33
-13 0 -15 28 -15 190 0 212 4 202 -70 176z m-249 -176 c38 -70 14 -203 -39
-217 -54 -13 -82 32 -82 133 0 58 4 76 21 98 31 39 75 33 100 -14z m259 21 c5
-11 10 -62 10 -114 0 -106 -14 -131 -66 -125 -46 5 -69 48 -69 132 0 95 19
126 75 126 29 0 42 -5 50 -19z"/>
<path d="M3665 1696 c-29 -12 -29 -13 -7 -20 18 -6 22 -15 22 -52 0 -43 -1
-44 -27 -38 -16 4 -30 7 -33 6 -40 0 -56 -6 -80 -30 -16 -16 -34 -49 -40 -73
l-12 -44 -20 52 c-24 65 -57 93 -110 93 -32 0 -47 -7 -74 -34 -19 -19 -37 -48
-40 -65 -7 -36 -24 -42 -24 -8 0 25 -27 70 -56 92 -10 8 -38 15 -62 15 -35 0
-49 -6 -72 -28 -29 -30 -50 -86 -50 -137 0 -41 33 -109 61 -129 29 -20 97 -20
123 -1 29 22 56 67 56 93 0 33 17 27 24 -9 3 -17 21 -46 40 -65 63 -63 147
-40 181 51 19 49 29 51 39 5 3 -17 19 -45 35 -61 35 -35 84 -38 168 -12 50 16
70 33 38 33 -13 0 -15 28 -15 190 0 210 2 205 -65 176z m-517 -161 c28 -35 36
-96 22 -154 -20 -83 -71 -105 -113 -49 -28 37 -30 148 -4 196 22 41 66 45 95
7z m263 -15 c32 -59 17 -186 -24 -212 -27 -17 -57 -8 -78 25 -27 44 -24 174 6
206 29 33 73 25 96 -19z m257 28 c8 -8 12 -49 12 -116 0 -88 -3 -107 -17 -118
-29 -22 -69 -17 -92 12 -40 51 -36 199 7 223 24 14 76 13 90 -1z"/>
<path d="M577 1682 c-9 -10 -17 -26 -17 -34 0 -20 -21 -28 -76 -28 -31 0 -50
-6 -64 -20 -18 -18 -20 -33 -20 -161 0 -135 7 -173 34 -191 6 -4 113 -8 237
-8 295 0 274 -14 274 188 0 181 -5 192 -91 192 -51 0 -53 1 -71 38 l-18 37
-86 3 c-73 2 -88 0 -102 -16z m175 -139 c31 -28 48 -68 48 -113 0 -120 -119
-184 -204 -110 -65 58 -71 141 -14 205 48 55 121 63 170 18z"/>
<path d="M645 1498 c-28 -16 -35 -28 -35 -68 0 -41 7 -53 37 -69 27 -14 67 0
82 28 34 63 -27 141 -84 109z"/>
<path d="M3955 1568 c-35 -27 -55 -75 -55 -133 0 -95 49 -155 128 -155 39 0
49 5 80 37 43 46 25 57 -24 14 -37 -33 -54 -37 -85 -21 -16 9 -49 58 -49 75 0
3 20 5 45 5 101 0 158 68 123 145 -25 55 -113 73 -163 33z m96 -9 c30 -16 42
-56 28 -96 -13 -40 -34 -53 -88 -53 l-41 0 0 45 c0 54 15 89 44 103 28 14 34
14 57 1z"/>
</g>
</svg>
