<?xml version="1.0" standalone="no"?>
<!DOCTYPE svg PUBLIC "-//W3C//DTD SVG 20010904//EN"
 "http://www.w3.org/TR/2001/REC-SVG-20010904/DTD/svg10.dtd">
<svg version="1.0" xmlns="http://www.w3.org/2000/svg"
 width="102.000000pt" height="86.000000pt" viewBox="0 0 102.000000 86.000000"
 preserveAspectRatio="xMidYMid meet">

<g transform="translate(0.000000,86.000000) scale(0.100000,-0.100000)"
fill="#000000" stroke="none">
<path d="M401 736 c-26 -15 -50 -51 -51 -78 0 -15 -10 -18 -65 -18 -39 0 -78
-6 -95 -15 -54 -28 -60 -55 -60 -258 0 -196 7 -236 45 -261 35 -23 649 -24
681 -1 40 28 45 61 42 273 l-3 202 -28 27 c-24 25 -36 28 -107 31 -61 3 -80 7
-80 19 0 27 -28 69 -55 81 -35 16 -193 15 -224 -2z m189 -191 c147 -76 142
-301 -8 -367 -181 -81 -334 174 -194 324 60 63 132 79 202 43z"/>
<path d="M455 446 c-83 -83 -3 -229 98 -181 40 19 57 50 57 106 0 84 -98 132
-155 75z"/>
</g>
</svg>
